<?xml version="1.0" standalone="no"?>
<!DOCTYPE svg PUBLIC "-//W3C//DTD SVG 20010904//EN"
 "http://www.w3.org/TR/2001/REC-SVG-20010904/DTD/svg10.dtd">
<svg version="1.0" xmlns="http://www.w3.org/2000/svg"
 width="260.000000pt" height="260.000000pt" viewBox="0 0 260.000000 260.000000"
 preserveAspectRatio="xMidYMid meet">
<metadata>
Created by potrace 1.11, written by Peter Selinger 2001-2013
</metadata>
<g transform="translate(0.000000,260.000000) scale(0.100000,-0.100000)"
fill="#000000" stroke="none">
<path d="M1427 2337 c-18 -12 -35 -70 -312 -1027 -64 -223 -123 -423 -130
-445 -7 -22 -41 -140 -76 -263 -58 -203 -62 -223 -47 -238 25 -25 279 -96 304
-85 22 10 39 55 109 306 20 72 40 141 45 155 4 14 15 50 24 80 71 249 271 938
286 987 10 34 42 145 71 248 48 168 51 187 37 201 -12 12 -262 94 -287 94 -4
0 -15 -6 -24 -13z"/>
<path d="M602 1892 c-22 -20 -213 -197 -271 -252 -20 -19 -97 -91 -170 -160
-74 -69 -140 -131 -147 -138 -8 -7 -14 -21 -14 -30 0 -16 101 -118 281 -285
41 -38 127 -119 192 -180 111 -104 150 -136 170 -137 5 0 29 22 55 49 171 178
178 188 150 222 -7 9 -89 83 -183 164 -93 82 -173 154 -177 160 -4 5 0 15 8
22 9 6 33 27 53 45 36 33 164 146 230 203 60 52 81 77 81 97 0 11 -30 52 -67
91 -153 162 -153 162 -191 129z"/>
<path d="M1948 1902 c-17 -7 -186 -182 -201 -209 -17 -29 6 -60 119 -158 267
-233 260 -226 239 -241 -9 -7 -32 -27 -51 -43 -18 -17 -91 -81 -161 -142 -142
-124 -153 -135 -153 -161 0 -10 28 -47 62 -84 34 -36 75 -81 92 -100 16 -20
37 -39 47 -45 34 -18 23 -27 398 326 236 222 264 251 257 271 -8 26 -15 33
-167 174 -68 63 -162 151 -208 195 -96 91 -95 90 -180 168 -65 59 -66 60 -93
49z"/>
</g>
</svg>
